<svg xmlns="http://www.w3.org/2000/svg" width="60.031" height="35.513" viewBox="0 0 60.031 35.513"><defs><style>.a{fill:#D20F4E;fill-rule:evenodd;}</style></defs><path class="a" d="M13.659,13.659A5.462,5.462,0,0,0,8.2,8.2,8.2,8.2,0,0,1,0,0H2.732A5.462,5.462,0,0,0,8.2,5.464a8.2,8.2,0,0,1,8.2,8.2,5.462,5.462,0,0,0,5.464,5.464,8.2,8.2,0,0,1,8.2,8.2,5.462,5.462,0,0,0,5.464,5.464v2.732a8.2,8.2,0,0,1-8.2-8.2,5.462,5.462,0,0,0-5.464-5.464A8.2,8.2,0,0,1,13.659,13.659ZM48.44,11,60.031,22.587,58.1,24.518,46.509,12.927,48.44,11Z"/></svg>
