<svg xmlns="http://www.w3.org/2000/svg" width="34.77" height="21.91"  xmlns:v="https://vecta.io/nano"><path fill="#29ccad" d="M13.49.748h20.463v20.414H13.49z"/><path d="M.739.743h20.463v20.414H.739z" fill="#fff"/><path d="M2.746.748h28.717v20.414H2.746z" fill="#35ffdc"/><path d="M33.269.748v20.415l.733-.733H2.096c-.43 0-.864-.02-1.294 0H.743l.733.733V.748l-.733.733h33.259a.74.74 0 0 0 .733-.733.75.75 0 0 0-.733-.737H4.836c-1.343 0-2.691-.03-4.039 0H.743a.74.74 0 0 0-.732.737v20.415a.74.74 0 0 0 .733.733h33.258a.74.74 0 0 0 .733-.733V.748c.01-.268-.127-.52-.358-.657s-.518-.137-.749 0-.368.389-.358.657z" fill="#444"/><path d="M34.027.772l-.029.024-16.625 12.918L.768.772z" fill="#fff"/><path d="M.768 21.138L11.463 9.109" fill="#35ffdc"/><path d="M1.285 21.656L11.98 9.623c.278-.289.278-.746 0-1.035-.135-.142-.322-.222-.518-.222s-.383.08-.518.222L.25 20.621c-.278.289-.278.746 0 1.035.135.142.322.222.517.222s.383-.08.518-.222z" fill="#444"/><path d="M33.978 21.138L23.287 9.109" fill="#35ffdc"/><g fill="#444"><path d="M34.496 20.62L23.806 8.587c-.287-.283-.748-.283-1.035 0a.77.77 0 0 0 0 1.035l10.695 12.033c.287.283.748.283 1.035 0a.77.77 0 0 0 0-1.035z"/><path d="M34.002 17.988v3.174h-2.31c-.252-.731-.136-1.539.313-2.169s1.175-1.004 1.948-1.005zm0-17.24v2.881h-.049c-.72 0-1.403-.324-1.858-.883a2.39 2.39 0 0 1-.486-1.998zM3.136 20.381c0 .266-.045.53-.132.781H.743v-3.174c1.322 0 2.393 1.071 2.393 2.393zm0-19.145a2.39 2.39 0 0 1-.701 1.692 2.39 2.39 0 0 1-1.692.701V.748h2.344a2.4 2.4 0 0 1 .049.488z"/></g><path d="M.768.772l16.6 14.358L34.027.772z" fill="#35ffdc"/><path d="M.251 1.289l1.66 1.431L16.86 15.647c.291.273.744.273 1.035 0l1.656-1.431L34.554 1.287c.201-.214.258-.527.144-.797s-.377-.449-.671-.455H4.861c-1.343 0-2.694-.03-4.039 0H.767C.365.041.04.366.034.768c.006.402.331.727.733.733h33.26L33.51.254l-5.636 4.854-11.018 9.505h1.035L1.286.254a.75.75 0 0 0-1.035 0C.109.389.029.576.029.772s.08.383.222.518z" fill="#444"/></svg>
