<svg xmlns="http://www.w3.org/2000/svg" width="11.551" height="25.056" viewBox="0 0 11.551 25.056"><path d="M2.557,12.637V24.763a.292.292,0,0,0,.292.292H7.378a.292.292,0,0,0,.292-.292V12.418h3.287a.292.292,0,0,0,.292-.292L11.542,8.4a.292.292,0,0,0-.292-.365H7.67V5.479a1.1,1.1,0,0,1,1.1-1.1h2.484a.292.292,0,0,0,.292-.292V.292A.292.292,0,0,0,11.249,0H7.086A4.529,4.529,0,0,0,2.557,4.529V8.108H.292A.292.292,0,0,0,0,8.4v3.725a.292.292,0,0,0,.292.292H2.557Z" transform="translate(0 0)" fill="#f9f9f9" fill-rule="evenodd"/></svg>