<svg xmlns="http://www.w3.org/2000/svg" width="26.224" height="26.152" viewBox="0 0 26.224 26.152"><path d="M19.942,4.822a1.534,1.534,0,1,0,1.534,1.534,1.534,1.534,0,0,0-1.534-1.534ZM13.149,6.794a6.428,6.428,0,1,0,6.428,6.428,6.5,6.5,0,0,0-6.428-6.428Zm0,10.592a4.164,4.164,0,1,1,4.164-4.164A4.164,4.164,0,0,1,13.149,17.386Zm13.076-9.5A7.889,7.889,0,0,0,18.262,0H7.889A7.889,7.889,0,0,0,0,7.89V18.262a7.889,7.889,0,0,0,7.889,7.889H18.262a7.889,7.889,0,0,0,7.889-7.889ZM23.668,18.262a5.406,5.406,0,0,1-5.406,5.406H7.889a5.406,5.406,0,0,1-5.406-5.406V7.89A5.406,5.406,0,0,1,7.889,2.484H18.262A5.406,5.406,0,0,1,23.668,7.89Z" transform="translate(0 0)" fill="#f9f9f9"/></svg>