<svg xmlns="http://www.w3.org/2000/svg" width="26.694" height="25.462" viewBox="0 0 26.694 25.462"><g transform="translate(0 0)"><path d="M26.653,16.664V26.09a.44.44,0,0,1-.44.44H21.367a.44.44,0,0,1-.44-.44v-8.81c0-2.291-.793-3.876-2.907-3.876a3.083,3.083,0,0,0-2.907,2.114,3.876,3.876,0,0,0-.176,1.41V26.09a.44.44,0,0,1-.44.44H9.65a.44.44,0,0,1-.44-.44c0-2.291.088-13.655,0-16.3a.44.44,0,0,1,.44-.44H14.5a.44.44,0,0,1,.44.44v2.026h0A5.638,5.638,0,0,1,20.046,9c3.788,0,6.519,2.467,6.519,7.753ZM.84,26.531H5.686a.44.44,0,0,0,.44-.44V9.792a.44.44,0,0,0-.44-.44H.84a.44.44,0,0,0-.44.44v16.3a.44.44,0,0,0,.44.44Z" transform="translate(0.041 -1.069)" fill="#f9f9f9"/><path d="M6.067,3.083A3.083,3.083,0,1,1,3.072,0a3.083,3.083,0,0,1,3,3.083Z" transform="translate(0.1 0.001)" fill="#f9f9f9"/></g></svg>