<svg xmlns="http://www.w3.org/2000/svg" width="66.089" height="51.705" viewBox="0 0 66.089 51.705">
    <defs>
        <style>
            .cls-1{fill:#eb2764}.cls-3{fill:#151515}.cls-4{fill:#34fcd8}
        </style>
    </defs>
    <g id="iso-color" transform="translate(33.045 25.852)">
        <g id="Grupo_367" transform="translate(-33.045 -25.852)">
            <g id="Grupo_364">
                <path id="Trazado_2520" d="M133.8 81.6v.182z" class="cls-1" transform="translate(-106.558 -65.08)"/>
                <path id="Trazado_2521" fill="#e30451" d="M189.1 40.2l-3.3 8.989h.02a5.748 5.748 0 0 1 2.586.607l.672-1.842 1.262 3.421a7.591 7.591 0 0 1 1.486 3.34 9.3 9.3 0 0 1 .143 1.113l.489 1.336h2.81z" transform="translate(-147.971 -32.062)"/>
                <path id="Trazado_2523" d="M178.786 39.793h-18.223l-.041-.182h-.041l-.061-.243a9.765 9.765 0 0 0 1.3-.162 11.319 11.319 0 0 0 3.97-1.5l.875-.547h8.409l-.652-1.8-8.083-22.107h-5.579l-2.586 7.065-2.28 6.235-.285.769a6.182 6.182 0 0 0-1.161 1.417l-.753-3.927 2-5.446 1.059-2.895 2.158-5.871h9.3l6.21 16.985 2.382 6.579z" class="cls-1" transform="translate(-122.327 -8.454)"/>
                <path id="Trazado_2524" d="M64.23 162.21a7.766 7.766 0 0 1-5.212 7.673 10.518 10.518 0 0 1-3.034.567H43.3V159.9h2.647v7.9h9.406a9.068 9.068 0 0 0 1.629-.142 5.34 5.34 0 0 0 3.6-2.126A5.426 5.426 0 0 0 61.5 163a7.448 7.448 0 0 0 .041-.83 6.021 6.021 0 0 0-.244-1.761 5.764 5.764 0 0 0 1.364-.486l1.2-.223a8.76 8.76 0 0 1 .369 2.51z" class="cls-1" transform="translate(-34.484 -127.369)"/>
                <path id="Trazado_2525" d="M71.477 152.918h-9.691l-1.364-3.725-1.629-4.434H61.6l2.036 5.507h4.054l-2.2-5.972-1.14-3.118H44.642a13.9 13.9 0 0 1-.529 2.146 13.2 13.2 0 0 1-2.626 4.575 13.644 13.644 0 0 1-3.278 2.713 17.409 17.409 0 0 1-9.02 2.288H10.6v-23h17.143a8.739 8.739 0 0 0 .163 1.255 8.243 8.243 0 0 0 .387 1.4H13.267v17.734h15.922a18.366 18.366 0 0 0 2.3-.142 14.047 14.047 0 0 0 4.54-1.336 11.059 11.059 0 0 0 4.072-3.442 10.86 10.86 0 0 0 1.812-4.191 11.778 11.778 0 0 0 .244-2.369v-.283a14.276 14.276 0 0 0-.407-3.3l1.059-.2-.407-1.579a6.145 6.145 0 0 0 1.853.83c.061.223.1.425.163.648a17.6 17.6 0 0 1 .407 3.583v.2-.2H66.2l3.258 8.928z" class="cls-1" transform="translate(-8.442 -103.602)"/>
                <path id="Trazado_2526" d="M187.481 154.082h-.041l-.041-.182h.041z" class="cls-1" transform="translate(-149.245 -122.744)"/>
                <path id="Trazado_2528" d="M261.2 203.3l1.2 3.28.814 2.247z" class="cls-3" transform="translate(-208.019 -162.143)"/>
                <path id="Trazado_2529" d="M51.98 12.855l-.672-1.822L47.3 0H34.958l-2.137 5.83a14.633 14.633 0 0 0-1.4-1.458A17.816 17.816 0 0 0 19.159 0H0v51.462h20.747a19.213 19.213 0 0 0 10.791-3.016 15.614 15.614 0 0 0 6.393-8.725h9.61L51.98 51.7h14.11v-.04zm-18.732-1.943l1.059-2.895 2.158-5.871h9.3l6.21 16.985 2.4 6.579 2.056 5.628H38.2l-.041-.182-.061-.243a9.765 9.765 0 0 0 1.3-.162 11.319 11.319 0 0 0 3.97-1.5l.875-.547h8.409L52 26.905 43.917 4.8h-5.579l-2.586 7.065-2.28 6.235-.285.769a6.182 6.182 0 0 0-1.161 1.417l-.753-3.927zm4.6 8.118a3.8 3.8 0 0 1 1.934.486A4.982 4.982 0 0 1 41.983 23a7.026 7.026 0 0 1 .122 1.174L37.768 25l-1.751.324a1.746 1.746 0 0 0 1.183 1.217 3.029 3.029 0 0 0 1 .162 4.4 4.4 0 0 0 .835-.081 8.461 8.461 0 0 0 2.525-.891l.774 1.9a8.8 8.8 0 0 1-2.534 1.056l-.774.182a7.411 7.411 0 0 1-1.364.142h-.122a4.558 4.558 0 0 1-2.688-.85 4.614 4.614 0 0 1-1.67-2.531 4.957 4.957 0 0 1-.143-.587 4.776 4.776 0 0 1 3.807-5.911l.244-.04zm-.02-1.9l3.3-8.989L47.337 25.1h-2.83l-.489-1.336a9.3 9.3 0 0 0-.143-1.113 7.591 7.591 0 0 0-1.486-3.34l-1.262-3.442-.672 1.842a5.748 5.748 0 0 0-2.586-.607zM20.869 40.449a9.07 9.07 0 0 0 1.629-.142 5.34 5.34 0 0 0 3.6-2.126 5.426 5.426 0 0 0 .916-2.531 7.448 7.448 0 0 0 .041-.83 6.021 6.021 0 0 0-.244-1.761 5.763 5.763 0 0 0 1.364-.486l1.2-.223a8.76 8.76 0 0 1 .346 2.47 7.766 7.766 0 0 1-5.212 7.673 10.518 10.518 0 0 1-3.034.567H8.816V32.533h2.647v7.9zm8.531-10l-.407-1.356h-.041a3.012 3.012 0 0 1-.611 1.053 3.609 3.609 0 0 1-2.036 1.113l-.407.061h-.305a4.1 4.1 0 0 1-3.522-2.186 6.193 6.193 0 0 1-.713-1.943 7.109 7.109 0 0 1-.122-.83 4.635 4.635 0 0 1 1.731-4.251l.224-.142a3.837 3.837 0 0 1 .753-.364l.2-.061.468-.121a4.607 4.607 0 0 1 .835-.081 2.518 2.518 0 0 1 1.853.668h.041l-.652-3.4v-.04l-.326-1.64.835-.162 2.1-.4.692 3.543 1.4 7.288.122.628c.183.85.366 1.66.489 2.166zM24.677 14.86c-.143-2.51-2.586-3.786-6.006-3.786h-7.208V16.5H8.816V8.2h9.854c6.312 0 8.612 3.421 8.673 6.559l-1.323.263-1.344.263v-.243l.001-.182zM2.158 1.964h17c5.986 0 10.4 2.571 12.766 6.094l-.041.121.041.061v.04h.02l-.044.12-1.2 3.259C29.339 7.9 25.287 4.818 19.179 4.818H4.825v15.1h14.314c2.891 0 4.642-1.073 5.273-3.077l.081.4.428 2.186-.652.1a5.948 5.948 0 0 0-3.848 2.51 6.106 6.106 0 0 0-.387.668v.061l-1.12.04H2.158zm51.186 47.352l-1.364-3.725-1.629-4.434h2.81l2.039 5.507h4.052l-2.2-5.972-1.14-3.118H36.2a13.9 13.9 0 0 1-.529 2.146 13.2 13.2 0 0 1-2.626 4.58 13.644 13.644 0 0 1-3.278 2.713 17.409 17.409 0 0 1-9.02 2.288H2.158v-23H19.3a8.739 8.739 0 0 0 .163 1.255 8.243 8.243 0 0 0 .387 1.4H4.825v17.728h15.922a18.367 18.367 0 0 0 2.3-.142 14.047 14.047 0 0 0 4.54-1.336 11.06 11.06 0 0 0 4.072-3.442 10.86 10.86 0 0 0 1.812-4.191 11.778 11.778 0 0 0 .244-2.369v-.283a14.276 14.276 0 0 0-.407-3.3l1.059-.2-.407-1.579a6.145 6.145 0 0 0 1.853.83c.061.223.1.425.163.648h.041a17.6 17.6 0 0 1 .366 3.4v.182h21.379l3.258 8.928 2 5.466z" class="cls-3"/>
                <path id="Trazado_2530" d="M61.828 47.059l-1.323.263-1.344.263v-.364c-.143-2.51-2.586-3.786-6.006-3.786h-7.208V48.8H43.3v-8.3h9.854c6.292 0 8.613 3.421 8.674 6.559z" class="cls-1" transform="translate(-34.484 -32.301)"/>
            </g>
            <g id="Grupo_365" transform="translate(21.218 16.297)">
                <path id="Trazado_2532" d="M114.511 91.958l-.122-.628-1.4-7.288-.692-3.543-2.1.4-.835.162.326 1.64v.04l.652 3.4h-.04a2.518 2.518 0 0 0-1.853-.668 4.606 4.606 0 0 0-.835.081l-.468.121-.2.061a3.836 3.836 0 0 0-.753.364l-.224.162a4.635 4.635 0 0 0-1.731 4.251 7.106 7.106 0 0 0 .122.83 6.193 6.193 0 0 0 .713 1.943 4.1 4.1 0 0 0 3.522 2.186h.305l.407-.061a3.609 3.609 0 0 0 2.036-1.113 3.012 3.012 0 0 0 .611-1.053h.041l.407 1.356 2.6-.501c-.122-.461-.326-1.291-.489-2.142zm-3.278-.749a1.742 1.742 0 0 1-1.181 1.66l-.244.061-.387.04a2.137 2.137 0 0 1-1.975-1.7 4.211 4.211 0 0 1-.143-.547c-.285-1.478.183-2.794 1.507-3.057l.346-.04a1.832 1.832 0 0 1 1.649 1.154 4.979 4.979 0 0 1 .143.506l.244 1.235a2.516 2.516 0 0 1 .041.688z" class="cls-4" transform="translate(-104.211 -80.5)"/>
                <path id="Trazado_2533" d="M123.016 119.283a1.742 1.742 0 0 1-1.181 1.66l-.244.061-.387.04a2.137 2.137 0 0 1-1.975-1.7 4.212 4.212 0 0 1-.143-.547c-.285-1.478.183-2.794 1.507-3.057l.346-.04a1.832 1.832 0 0 1 1.649 1.154 4.979 4.979 0 0 1 .143.506l.244 1.235a2.516 2.516 0 0 1 .041.688z" class="cls-3" transform="translate(-115.994 -108.574)"/>
            </g>
            <g id="Grupo_366" transform="translate(32.983 19.049)">
                <path id="Trazado_2534" d="M170.59 100.778a8.46 8.46 0 0 1-2.525.891 4.4 4.4 0 0 1-.835.081 3.029 3.029 0 0 1-1-.142 1.746 1.746 0 0 1-1.181-1.215l1.751-.324 4.337-.83a7.026 7.026 0 0 0-.122-1.174 5.049 5.049 0 0 0-2.2-3.482 3.8 3.8 0 0 0-1.934-.486l-.733.061-.244.04c-3.278.628-4.255 3.543-3.807 5.911.041.2.081.385.143.587a4.614 4.614 0 0 0 1.67 2.531 4.558 4.558 0 0 0 2.688.85h.122a7.412 7.412 0 0 0 1.364-.142l.774-.182a8.8 8.8 0 0 0 2.525-1.053zm-5.945-2.551a2.179 2.179 0 0 1 .611-1.64 1.673 1.673 0 0 1 .855-.425l.387-.04a1.572 1.572 0 0 1 1.425.951 2.682 2.682 0 0 1 .224.668l-.509.1-2.993.547q-.005-.08-.001-.161z" class="cls-4" transform="translate(-161.997 -94.097)"/>
                <path id="Trazado_2535" d="M178.468 105.64l-.509.1-2.973.547a1.65 1.65 0 0 1 0-.182 2.179 2.179 0 0 1 .611-1.64 1.673 1.673 0 0 1 .855-.425l.387-.04a1.572 1.572 0 0 1 1.425.951 2.681 2.681 0 0 1 .204.689z" class="cls-3" transform="translate(-172.339 -101.995)"/>
            </g>
            <path id="Trazado_2536" d="M40.367 16v.04h.02l-.041.121-1.2 3.259c-1.364-3.765-5.416-6.843-11.524-6.843H13.267v15.08H27.58c2.891 0 4.642-1.073 5.273-3.077l.081.4.428 2.186-.652.1a5.948 5.948 0 0 0-3.848 2.51 6.106 6.106 0 0 0-.387.668v.061l-1.12.04H10.6V9.7h17c5.986 0 10.4 2.571 12.766 6.094l-.041.121z" class="cls-1" transform="translate(-8.442 -7.736)"/>
        </g>
    </g>
</svg>
